<svg width="40" height="30" viewBox="0 0 40 30" fill="none" xmlns="http://www.w3.org/2000/svg">
<path d="M28.1818 17.1429C27.321 17.1429 26.2707 17.2563 25.1546 17.4804C21.8072 18.1528 18.1974 18.14 14.8486 17.475C13.7313 17.2531 12.6798 17.1429 11.8182 17.1429C7.87273 17.1429 0 19.4571 0 24.1071C0 27.3617 2.63832 30 5.89285 30H34.1071C37.3617 30 40 27.3617 40 24.1071C40 19.4571 32.1273 17.1429 28.1818 17.1429ZM20.9091 24.1071C20.9091 25.5865 19.7099 26.7857 18.2305 26.7857H5.40585C3.92651 26.7857 2.72727 25.5865 2.72727 24.1071C2.72727 22.95 7.38182 20.3571 11.8182 20.3571C16.2545 20.3571 20.9091 22.95 20.9091 24.1071ZM37.2727 24.1071C37.2727 25.5865 36.0735 26.7857 34.5942 26.7857H26.3149C24.8356 26.7857 23.6364 25.5865 23.6364 24.1071C23.6364 22.6801 23.9993 20.9635 25.3951 20.6664C26.3021 20.4733 27.2462 20.3571 28.1818 20.3571C32.6182 20.3571 37.2727 22.95 37.2727 24.1071ZM11.8182 15C15.3273 15 18.1818 11.6357 18.1818 7.5C18.1818 3.36429 15.3273 0 11.8182 0C8.30909 0 5.45455 3.36429 5.45455 7.5C5.45455 11.6357 8.30909 15 11.8182 15ZM11.8182 3.21429C13.8182 3.21429 15.4545 5.14286 15.4545 7.5C15.4545 9.85714 13.8182 11.7857 11.8182 11.7857C9.81818 11.7857 8.18182 9.85714 8.18182 7.5C8.18182 5.14286 9.81818 3.21429 11.8182 3.21429ZM28.1818 15C31.6909 15 34.5455 11.6357 34.5455 7.5C34.5455 3.36429 31.6909 0 28.1818 0C24.6727 0 21.8182 3.36429 21.8182 7.5C21.8182 11.6357 24.6727 15 28.1818 15ZM28.1818 3.21429C30.1818 3.21429 31.8182 5.14286 31.8182 7.5C31.8182 9.85714 30.1818 11.7857 28.1818 11.7857C26.1818 11.7857 24.5455 9.85714 24.5455 7.5C24.5455 5.14286 26.1818 3.21429 28.1818 3.21429Z" fill="#2F2E41"/>
</svg>