<svg width="40" height="40" viewBox="0 0 40 40" fill="none" xmlns="http://www.w3.org/2000/svg">
<path d="M35.2344 10.9789L16.875 0.390691C16.1719 -1.71447e-05 15.4362 -0.0911824 14.668 0.117195C13.8997 0.325573 13.3203 0.768375 12.9297 1.4456L0.390621 23.1299C0.0520782 23.729 -0.0651093 24.3541 0.0390587 25.0053C8.03385 25.0053 15.2344 23.7029 21.6406 21.0982C28.0469 18.4935 32.5781 15.1204 35.2344 10.9789ZM2.14843 27.4668L23.1641 39.6178C23.8411 40.0085 24.5638 40.1062 25.332 39.9108C26.1003 39.7154 26.6927 39.2661 27.1094 38.5629L40 17.5037C36.3021 20.4991 31.0612 22.8955 24.2773 24.6927C17.4935 26.49 10.1172 27.4147 2.14843 27.4668Z" fill="#2F2E41"/>
</svg>