<svg width="40" height="30" viewBox="0 0 40 30" fill="none" xmlns="http://www.w3.org/2000/svg">
<path d="M33.6286 15.2022C33.4713 15.1584 33.3594 15.0171 33.3594 14.8539C33.3594 14.7041 33.4542 14.5719 33.5924 14.5141C34.4744 14.145 35.191 13.5152 35.7422 12.6246C36.3411 11.6569 36.6406 10.5572 36.6406 9.32551V5.6305C36.6406 3.98827 36.1719 2.6393 35.2344 1.58358C34.2969 0.527859 33.099 0 31.6406 0C30.2344 0 29.0495 0.527859 28.0859 1.58358C27.1224 2.6393 26.6406 3.98827 26.6406 5.6305V9.32551C26.6406 10.5572 26.9531 11.6569 27.5781 12.6246C28.1526 13.5142 28.8811 14.1435 29.7636 14.5128C29.9038 14.5714 30 14.7056 30 14.8575C30 15.0195 29.8912 15.1607 29.7363 15.2082C29.1742 15.3806 28.6305 15.611 28.1053 15.8995C26.7598 16.6383 24.998 16.588 23.6332 15.8857C23.1045 15.6136 22.5288 15.387 21.9061 15.2057C21.7502 15.1604 21.6406 15.0189 21.6406 14.8566C21.6406 14.7052 21.7365 14.5715 21.8762 14.5131C22.7591 14.1439 23.4878 13.5144 24.0625 12.6246C24.6875 11.6569 25 10.5572 25 9.32551V5.6305C25 3.98827 24.5182 2.6393 23.5547 1.58358C22.5911 0.527859 21.4062 0 20 0C18.5938 0 17.4089 0.527859 16.4453 1.58358C15.4818 2.6393 15 3.98827 15 5.6305V9.32551C15 10.5572 15.3125 11.6569 15.9375 12.6246C16.512 13.5142 17.2405 14.1435 18.123 14.5128C18.2632 14.5714 18.3594 14.7056 18.3594 14.8575C18.3594 15.0195 18.2506 15.1607 18.0957 15.2081C17.4848 15.3951 16.8912 15.6503 16.3149 15.9738C14.9921 16.7164 13.3068 16.6954 11.9856 15.95C11.4322 15.6378 10.8582 15.3906 10.2637 15.2082C10.1088 15.1607 10 15.0195 10 14.8575C10 14.7056 10.0962 14.5714 10.2364 14.5128C11.1189 14.1435 11.8474 13.5142 12.4219 12.6246C13.0469 11.6569 13.3594 10.5572 13.3594 9.32551V5.6305C13.3594 3.98827 12.8776 2.6393 11.9141 1.58358C10.9505 0.527859 9.76562 0 8.35938 0C6.90104 0 5.70312 0.527859 4.76562 1.58358C3.82812 2.6393 3.35938 3.98827 3.35938 5.6305V9.32551C3.35938 10.5572 3.65885 11.6569 4.25781 12.6246C4.80901 13.5152 5.52562 14.145 6.40763 14.5141C6.54577 14.5719 6.64062 14.7041 6.64062 14.8539C6.64062 15.0171 6.52867 15.1584 6.37145 15.2022C4.56513 15.7058 3.06632 16.7821 1.875 18.4311C0.625 20.1613 0 22.1408 0 24.3695C0 27.4791 2.52086 30 5.6305 30H34.3695C37.4791 30 40 27.4791 40 24.3695C40 22.1408 39.375 20.1613 38.125 18.4311C36.9337 16.7821 35.4349 15.7058 33.6286 15.2022ZM6.64062 5.6305C6.64062 4.34018 7.21354 3.69501 8.35938 3.69501C8.82812 3.69501 9.21875 3.87097 9.53125 4.22287C9.84375 4.57478 10 5.04399 10 5.6305V9.32551C10 9.91202 9.84375 10.3812 9.53125 10.7331C9.21875 11.085 8.82812 11.261 8.35938 11.261C7.21354 11.261 6.64062 10.6158 6.64062 9.32551V5.6305ZM13.3594 24.3695C13.3594 25.3899 12.5322 26.217 11.5119 26.217H5.20688C4.18653 26.217 3.35938 25.3899 3.35938 24.3695C3.35938 22.7859 3.82812 21.4516 4.76562 20.3666C5.70312 19.2815 6.90104 18.739 8.35938 18.739C9.81771 18.739 11.0938 19.4135 12.1875 20.7625C12.9688 21.8768 13.3594 23.0792 13.3594 24.3695ZM18.3594 5.6305C18.3594 4.34018 18.9062 3.69501 20 3.69501C21.0938 3.69501 21.6406 4.34018 21.6406 5.6305V9.32551C21.6406 10.6158 21.0938 11.261 20 11.261C18.9062 11.261 18.3594 10.6158 18.3594 9.32551V5.6305ZM25 24.3695C25 25.3899 24.1728 26.217 23.1525 26.217H16.8475C15.8272 26.217 15 25.3899 15 24.3695C15 23.0205 15.3906 21.8182 16.1719 20.7625C17.2656 19.4135 18.5417 18.739 20 18.739C21.4583 18.739 22.7344 19.4135 23.8281 20.7625C24.6094 21.8182 25 23.0205 25 24.3695ZM30 5.6305C30 5.04399 30.1562 4.57478 30.4688 4.22287C30.7812 3.87097 31.1719 3.69501 31.6406 3.69501C32.7865 3.69501 33.3594 4.34018 33.3594 5.6305V9.32551C33.3594 10.6158 32.7865 11.261 31.6406 11.261C31.1719 11.261 30.7812 11.085 30.4688 10.7331C30.1562 10.3812 30 9.91202 30 9.32551V5.6305ZM36.6406 24.3695C36.6406 25.3899 35.8135 26.217 34.7931 26.217H28.4881C27.4678 26.217 26.6406 25.3899 26.6406 24.3695C26.6406 23.0792 27.0312 21.8768 27.8125 20.7625C28.9062 19.4135 30.1823 18.739 31.6406 18.739C33.099 18.739 34.2969 19.2815 35.2344 20.3666C36.1719 21.4516 36.6406 22.7859 36.6406 24.3695Z" fill="#2F2E41"/>
</svg>