<svg width="1112" height="612" viewBox="0 0 1112 612" fill="none" xmlns="http://www.w3.org/2000/svg">
<g clip-path="url(#clip0)">
<path d="M1107.31 0.498901H228.535V564.096H1107.31V0.498901Z" fill="#E6E6E6"/>
<path d="M623.492 76.1807H306.242V402.631H623.492V76.1807Z" fill="white"/>
<path d="M1059.4 82.5115H742.148V479.005H1059.4V82.5115Z" fill="white"/>
<path d="M1055.17 605.073C1086.56 605.073 1112 601.433 1112 596.943C1112 592.453 1086.56 588.813 1055.17 588.813C1023.78 588.813 998.34 592.453 998.34 596.943C998.34 601.433 1023.78 605.073 1055.17 605.073Z" fill="#E6E6E6"/>
<path d="M486.99 605.255C518.377 605.255 543.821 601.615 543.821 597.125C543.821 592.635 518.377 588.995 486.99 588.995C455.604 588.995 430.16 592.635 430.16 597.125C430.16 601.615 455.604 605.255 486.99 605.255Z" fill="#E6E6E6"/>
<path d="M130.428 595.249C202.462 595.249 260.857 592.449 260.857 588.995C260.857 585.541 202.462 582.741 130.428 582.741C58.3948 582.741 0 585.541 0 588.995C0 592.449 58.3948 595.249 130.428 595.249Z" fill="#E6E6E6"/>
<path d="M1106.94 0H228.16V37.386H1106.94V0Z" fill="#2F2E41"/>
<path d="M255.903 26.0429C259.725 26.0429 262.823 22.9406 262.823 19.1137C262.823 15.2868 259.725 12.1845 255.903 12.1845C252.082 12.1845 248.984 15.2868 248.984 19.1137C248.984 22.9406 252.082 26.0429 255.903 26.0429Z" fill="#E6E6E6"/>
<path d="M282.168 26.0429C285.99 26.0429 289.088 22.9406 289.088 19.1137C289.088 15.2868 285.99 12.1845 282.168 12.1845C278.347 12.1845 275.249 15.2868 275.249 19.1137C275.249 22.9406 278.347 26.0429 282.168 26.0429Z" fill="#E6E6E6"/>
<path d="M308.433 26.0429C312.254 26.0429 315.352 22.9406 315.352 19.1137C315.352 15.2868 312.254 12.1845 308.433 12.1845C304.611 12.1845 301.513 15.2868 301.513 19.1137C301.513 22.9406 304.611 26.0429 308.433 26.0429Z" fill="#E6E6E6"/>
<path d="M989.453 188.864H987.532V136.144C987.532 132.137 986.743 128.169 985.212 124.467C983.681 120.765 981.436 117.401 978.607 114.567C975.777 111.734 972.418 109.486 968.722 107.953C965.025 106.42 961.062 105.63 957.061 105.63H845.522C841.52 105.63 837.558 106.42 833.861 107.953C830.164 109.486 826.805 111.734 823.976 114.567C821.146 117.401 818.902 120.765 817.371 124.467C815.839 128.169 815.051 132.137 815.051 136.144V425.372C815.051 429.38 815.839 433.347 817.371 437.049C818.902 440.751 821.146 444.115 823.976 446.949C826.805 449.782 830.164 452.03 833.861 453.563C837.558 455.097 841.52 455.886 845.522 455.886H957.061C961.062 455.886 965.025 455.097 968.722 453.563C972.418 452.03 975.777 449.782 978.607 446.949C981.436 444.115 983.681 440.751 985.212 437.049C986.743 433.347 987.532 429.38 987.532 425.372V226.391H989.453V188.864Z" fill="#3F3D56"/>
<path d="M957.041 113.569H942.482C943.151 115.213 943.407 116.996 943.226 118.762C943.045 120.528 942.433 122.223 941.444 123.696C940.456 125.17 939.12 126.377 937.555 127.212C935.991 128.047 934.245 128.483 932.472 128.484H868.573C866.8 128.483 865.055 128.047 863.49 127.212C861.926 126.377 860.59 125.17 859.601 123.696C858.612 122.223 858 120.528 857.82 118.762C857.639 116.996 857.894 115.213 858.564 113.569H844.965C841.977 113.569 839.018 114.158 836.257 115.303C833.496 116.449 830.988 118.127 828.875 120.243C826.762 122.359 825.086 124.871 823.942 127.636C822.799 130.4 822.21 133.363 822.21 136.356V425.16C822.21 428.153 822.799 431.116 823.942 433.881C825.086 436.645 826.762 439.157 828.875 441.273C830.988 443.389 833.496 445.068 836.257 446.213C839.018 447.358 841.977 447.947 844.965 447.947H957.041C960.03 447.947 962.989 447.358 965.749 446.213C968.51 445.068 971.019 443.389 973.132 441.273C975.245 439.157 976.921 436.645 978.064 433.881C979.208 431.116 979.796 428.153 979.796 425.16V136.356C979.796 130.312 977.399 124.516 973.132 120.243C968.864 115.97 963.076 113.569 957.041 113.569Z" fill="white"/>
<path d="M575.339 282.393H354.833V292.465H575.339V282.393Z" fill="#E6E6E6"/>
<path d="M575.339 314.913H354.833V324.985H575.339V314.913Z" fill="#2F2E41"/>
<path d="M575.339 347.433H354.833V357.505H575.339V347.433Z" fill="#E6E6E6"/>
<path d="M966.616 304.369H837.888V314.441H966.616V304.369Z" fill="#E6E6E6"/>
<path d="M966.616 335.638H837.888V345.71H966.616V335.638Z" fill="#E6E6E6"/>
<path d="M966.616 366.907H837.888V376.979H966.616V366.907Z" fill="#E6E6E6"/>
<path d="M980.076 523.309V501.824H958.621V523.309H980.076Z" fill="#3F3D56"/>
<path d="M945.51 523.309V501.824H924.055V523.309H945.51Z" fill="#6C63FF"/>
<path d="M910.944 523.309V501.824H889.489V523.309H910.944Z" fill="#3F3D56"/>
<path d="M876.378 523.309V501.824H854.923V523.309H876.378Z" fill="#3F3D56"/>
<path d="M841.812 523.309V501.824H820.357V523.309H841.812Z" fill="#3F3D56"/>
<path d="M936.761 173.844H865.245V245.46H936.761V173.844Z" fill="#2F2E41"/>
<path d="M436.662 344.702L435.736 346.556L432.959 332.652C432.959 332.652 429.257 317.82 436.662 317.82C444.068 317.82 442.216 332.652 442.216 332.652V342.849L436.662 344.702Z" fill="#A0616A"/>
<path d="M558.118 342.804L559.043 344.658L561.821 330.753C561.821 330.753 565.523 315.922 558.118 315.922C550.712 315.922 552.564 330.753 552.564 330.753V340.95L558.118 342.804Z" fill="#A0616A"/>
<path d="M477.392 448.95L466.285 517.547L471.838 584.29L484.798 578.729L482.947 528.67L495.906 488.81L498.683 536.086L493.13 585.216L509.792 587.071L521.826 486.029L520.9 451.731L477.392 448.95Z" fill="#2F2E41"/>
<path d="M477.392 575.947L470.913 586.144V608.928C470.913 609.585 471.146 610.219 471.571 610.719C471.996 611.219 472.584 611.551 473.231 611.656C476.407 612.177 481.937 612.548 483.872 609.319C486.649 604.684 484.798 594.487 484.798 594.487C484.798 594.487 488.501 587.071 486.649 581.509C484.798 575.947 482.947 575.02 482.947 575.02L477.392 575.947Z" fill="#2F2E41"/>
<path d="M505.163 585.217L507.014 587.998C507.014 587.998 509.792 590.779 507.94 592.633C506.581 594.074 505.343 595.624 504.237 597.268C504.237 597.268 494.055 600.049 494.055 596.341V584.29L505.163 585.217Z" fill="#2F2E41"/>
<path d="M501.827 373.503C508.604 373.503 514.098 368.002 514.098 361.215C514.098 354.429 508.604 348.927 501.827 348.927C495.05 348.927 489.556 354.429 489.556 361.215C489.556 368.002 495.05 373.503 501.827 373.503Z" fill="#A0616A"/>
<path d="M493.592 365.058L492.666 382.671L509.328 383.598L508.403 365.984L493.592 365.058Z" fill="#A0616A"/>
<path d="M511.643 384.061L509.015 377.632C509.015 377.632 496.832 372.937 493.129 377.572L491.278 383.134L476.467 379.426L468.136 397.966L475.541 450.804C475.541 450.804 494.981 475.833 520.9 451.731L528.305 401.674L522.751 382.207L511.643 384.061Z" fill="#575A89"/>
<path d="M520.9 385.915L522.751 382.207L541.266 371.083L552.564 337.591L561.307 341.343L551.447 381.28L524.602 406.308L520.9 385.915Z" fill="#575A89"/>
<path d="M478.318 381.28L476.467 379.426L457.027 367.375L443.142 339.566L432.034 343.273L444.067 377.571L473.69 401.674L478.318 381.28Z" fill="#575A89"/>
<path d="M510.934 342.398L512.94 341.393L509.931 340.389V339.384C509.931 339.384 494.884 333.357 492.878 343.402C490.288 346.887 488.89 351.114 488.89 355.457C488.89 359.8 490.288 364.027 492.878 367.512V370.525L508.928 372.534L510.934 366.507C510.934 366.507 520.966 348.425 510.934 342.398Z" fill="#2F2E41"/>
<path d="M143.749 450.038L140.182 451.824C140.182 451.824 125.917 458.372 130.077 461.943C134.238 465.514 145.532 458.372 145.532 458.372L147.91 455.395L143.749 450.038Z" fill="#A0616A"/>
<path d="M248.096 449.149L237.072 523.253L220.427 575.039L211.512 570.873L219.833 500.039L196.057 479.8L197.84 450.038L248.096 449.149Z" fill="#2F2E41"/>
<path d="M210.323 572.658C210.323 572.658 220.428 567.301 221.022 575.039L219.833 582.778C219.833 582.778 223.4 596.468 211.512 593.492C199.623 590.516 207.945 581.587 207.945 581.587L210.323 572.658Z" fill="#2F2E41"/>
<path d="M203.784 473.253L196.057 479.8C196.057 479.8 196.057 520.277 201.407 526.229C206.756 532.182 240.638 562.539 241.826 563.73C243.015 564.92 248.365 551.825 248.365 551.825L216.267 514.324L218.644 491.11L203.784 473.253Z" fill="#2F2E41"/>
<path d="M244.799 550.039C244.799 550.039 254.309 548.253 254.309 554.801C254.427 559.977 254.824 565.144 255.498 570.277C255.498 570.277 257.876 591.111 250.148 588.135C242.421 585.158 239.449 564.325 239.449 564.325C240.168 562.593 241.416 561.134 243.015 560.158C245.393 558.968 244.799 550.039 244.799 550.039Z" fill="#2F2E41"/>
<path d="M215.078 360.751L216.861 382.776L212.106 391.109L199.029 378.608L197.84 361.942L215.078 360.751Z" fill="#A0616A"/>
<path d="M204.379 367.894C212.257 367.894 218.644 361.498 218.644 353.609C218.644 345.719 212.257 339.323 204.379 339.323C196.5 339.323 190.113 345.719 190.113 353.609C190.113 361.498 196.5 367.894 204.379 367.894Z" fill="#A0616A"/>
<path d="M210.323 382.181L216.267 364.919L226.966 376.824L246.582 452.419L231.721 461.348L225.184 451.823L223.995 464.323L194.868 458.371L192.491 378.608L198.431 370.23L210.323 382.181Z" fill="#D0CDE1"/>
<path d="M202.001 466.705L198.435 370.276L190.707 376.228L176.441 385.752L185.952 419.681L188.923 455.395L202.001 466.705Z" fill="#2F2E41"/>
<path d="M180.603 386.347L176.441 385.752L164.553 420.871L140.776 450.634L149.693 460.157L177.035 433.371L187.141 411.347L180.603 386.347Z" fill="#2F2E41"/>
<path d="M245.517 450.583L244.706 454.492C244.706 454.492 240.995 469.762 246.373 468.705C251.75 467.649 253.152 454.346 253.152 454.346L252.294 450.633L245.517 450.583Z" fill="#A0616A"/>
<path d="M215.338 363.952L244.798 375.633L241.232 411.347L248.365 450.634L241.232 458.371L214.858 369.011L215.338 363.952Z" fill="#2F2E41"/>
<path d="M205.126 329.615L209.313 327.519V329.615L212.105 328.217V331.712C212.105 331.712 222.573 339.4 220.48 348.485C218.386 357.571 218.386 358.27 218.386 358.27C218.386 358.27 215.739 340.991 205.27 343.787C194.802 346.583 193.959 347.087 191.167 354.775L190.41 358.073C190.41 358.073 178.605 331.013 205.126 329.615Z" fill="#2F2E41"/>
<path d="M240.638 375.633H245.393L253.12 417.3V453.609L243.61 451.823L235.883 397.061L240.638 375.633Z" fill="#2F2E41"/>
<path d="M179.678 463.749H4.41528V585.713H179.678V463.749Z" fill="#2F2E41"/>
<path d="M92.0468 487.547C84.7028 487.547 77.5237 489.727 71.4174 493.813C65.311 497.899 60.5517 503.707 57.7413 510.501C54.9309 517.296 54.1955 524.772 55.6283 531.985C57.061 539.198 60.5975 545.824 65.7905 551.024C70.9835 556.224 77.5998 559.766 84.8027 561.2C92.0056 562.635 99.4716 561.899 106.257 559.084C113.042 556.27 118.841 551.504 122.921 545.389C127.001 539.274 129.179 532.085 129.179 524.731C129.15 514.878 125.229 505.437 118.271 498.469C111.314 491.502 101.886 487.576 92.0468 487.547ZM92.0468 498.702C94.25 498.702 96.4037 499.356 98.2356 500.582C100.067 501.808 101.495 503.55 102.338 505.588C103.182 507.627 103.402 509.87 102.972 512.033C102.542 514.197 101.482 516.185 99.9237 517.745C98.3658 519.305 96.3809 520.368 94.22 520.798C92.0591 521.228 89.8193 521.007 87.7838 520.163C85.7483 519.319 84.0086 517.889 82.7845 516.055C81.5605 514.22 80.9072 512.063 80.9072 509.857C80.917 506.902 82.0938 504.07 84.1808 501.98C86.2677 499.89 89.0954 498.712 92.0468 498.702ZM92.0468 552.404C87.6462 552.384 83.317 551.289 79.4346 549.214C75.5522 547.14 72.2339 544.148 69.7676 540.498C69.9461 533.061 84.6204 528.968 92.0468 528.968C99.4732 528.968 114.147 533.061 114.326 540.498C111.857 544.145 108.538 547.135 104.656 549.209C100.774 551.284 96.4466 552.38 92.0468 552.404Z" fill="white"/>
<path d="M574.78 113.704H354.954V240.031H574.78V113.704Z" fill="#E6E6E6"/>
<path d="M1009.46 364.265L1010.47 357.686C1010.47 357.686 1016.41 344.172 1011.72 343.443C1007.03 342.715 1003.11 355.581 1003.11 355.581L1004.83 369.322L1009.46 364.265Z" fill="#A0616A"/>
<path d="M1057.5 401.56L1015.56 393.124L1010.69 362.531L998.34 361.577L998.943 401.13L1035.39 420.263L1057.5 401.56Z" fill="#575A89"/>
<path opacity="0.2" d="M1057.5 401.56L1015.56 393.124L1010.69 362.531L998.34 361.577L998.943 401.13L1035.39 420.263L1057.5 401.56Z" fill="black"/>
<path d="M943.397 356.174H1072.13V346.102H943.397V356.174Z" fill="#2F2E41"/>
<path d="M1001.26 362.01L1001.27 355.352C1001.27 355.352 1005.09 341.091 1000.34 341.085C995.59 341.079 993.673 354.392 993.673 354.392L997.456 367.711L1001.26 362.01Z" fill="#A0616A"/>
<path d="M1055.86 381.077L1061.61 379.672C1063.81 379.675 1065.98 379.189 1067.96 378.249C1069.95 377.309 1071.7 375.939 1073.09 374.238C1074.48 372.537 1075.48 370.547 1076.01 368.413C1076.54 366.279 1076.59 364.053 1076.15 361.898C1076.16 359.351 1075.66 356.829 1074.69 354.475C1073.72 352.121 1072.3 349.981 1070.5 348.179C1068.7 346.376 1066.57 344.944 1064.22 343.967C1061.87 342.989 1059.36 342.485 1056.81 342.481C1054.27 342.478 1051.75 342.977 1049.4 343.948C1047.05 344.92 1044.91 346.346 1043.11 348.144C1041.31 349.942 1039.88 352.078 1038.91 354.43C1037.93 356.781 1037.43 359.303 1037.42 361.849C1036.68 364.443 1036.63 367.187 1037.28 369.807C1037.92 372.427 1039.25 374.831 1041.11 376.778C1042.98 378.725 1045.32 380.147 1047.91 380.901C1050.5 381.656 1053.24 381.716 1055.86 381.077Z" fill="#2F2E41"/>
<path d="M1022.01 477.115L1026.7 528.479L1035.18 578.896L1049.43 578.914L1047.59 529.456L1040.07 469.529L1022.01 477.115Z" fill="#2F2E41"/>
<path d="M1037.08 576.045L1027.58 581.74C1027.58 581.74 1012.38 583.623 1015.22 588.382C1018.07 593.141 1051.31 590.329 1051.31 588.427C1051.32 586.525 1050.38 576.062 1048.48 576.06L1037.08 576.045Z" fill="#2F2E41"/>
<path d="M1064.06 472.678C1064.06 472.678 1063.8 480.021 1057.13 491.425L1058.04 526.616L1092.17 570.408L1079.82 580.854L1038.09 533.249L1027.71 476.171L1041.02 462.873L1064.06 472.678Z" fill="#2F2E41"/>
<path d="M1089.33 570.405C1089.33 570.405 1100.72 572.321 1098.81 577.074C1096.91 581.827 1092.13 603.696 1079.79 600.827C1079.79 600.827 1074.09 600.82 1076 597.018C1077.14 594.731 1078.41 592.51 1079.8 590.365L1079.82 578.001L1089.33 570.405Z" fill="#2F2E41"/>
<path d="M1049.69 382.043C1057.56 382.043 1063.94 375.656 1063.94 367.777C1063.94 359.898 1057.56 353.511 1049.69 353.511C1041.82 353.511 1035.44 359.898 1035.44 367.777C1035.44 375.656 1041.82 382.043 1049.69 382.043Z" fill="#A0616A"/>
<path d="M1056.33 377.296L1056.31 393.464L1041.11 393.445L1043.03 377.28L1056.33 377.296Z" fill="#A0616A"/>
<path d="M1037.32 387.734L1041.92 386.601L1056.31 387.758C1056.31 387.758 1063.9 395.376 1062.95 397.277C1062 399.178 1057.19 445.774 1057.19 445.774L1065.7 479.072L1035.3 480.936L1020.11 479.015L1023.03 419.101C1023.03 419.101 1016.41 402.925 1024.96 398.18C1029.79 395.642 1034.01 392.077 1037.32 387.734Z" fill="#575A89"/>
<path d="M1054.41 391.56L1011.67 389.604L1002.21 360.11L989.867 361.044L996.465 400.047L1035.39 413.411L1054.41 391.56Z" fill="#575A89"/>
<path d="M1077.19 357.267C1082.27 357.267 1086.38 353.146 1086.38 348.063C1086.38 342.979 1082.27 338.858 1077.19 338.858C1072.11 338.858 1068 342.979 1068 348.063C1068 353.146 1072.11 357.267 1077.19 357.267Z" fill="#2F2E41"/>
<path d="M1068.71 343.115C1068.71 341.753 1069.01 340.409 1069.6 339.179C1070.18 337.949 1071.03 336.863 1072.08 336.001C1073.13 335.139 1074.36 334.522 1075.68 334.193C1077 333.865 1078.38 333.834 1079.71 334.103C1078.53 333.547 1077.25 333.247 1075.95 333.223C1074.65 333.199 1073.36 333.452 1072.17 333.965C1070.97 334.478 1069.9 335.24 1069.02 336.199C1068.14 337.158 1067.47 338.294 1067.06 339.531C1066.65 340.767 1066.51 342.076 1066.65 343.372C1066.78 344.668 1067.19 345.92 1067.84 347.046C1068.5 348.172 1069.38 349.146 1070.44 349.904C1071.5 350.661 1072.7 351.186 1073.98 351.442C1072.4 350.698 1071.07 349.52 1070.14 348.045C1069.2 346.571 1068.71 344.86 1068.71 343.115Z" fill="#2F2E41"/>
<path d="M1060.83 348.335L1048.43 346.05L1038.9 352.031C1036.56 353.501 1034.69 355.614 1033.51 358.118C1032.33 360.622 1031.89 363.412 1032.25 366.158L1041.79 363.735L1043.93 358.369L1046.47 362.547L1056.8 380.626L1067.25 374.932L1073.91 364.479L1060.83 348.335Z" fill="#2F2E41"/>
<path d="M355.575 112.619L354.332 114.788L574.159 241.116L575.402 238.947L355.575 112.619Z" fill="white"/>
<path d="M574.164 112.628L354.327 238.938L355.57 241.107L575.407 114.797L574.164 112.628Z" fill="white"/>
<path d="M866.684 172.856L864.918 174.625L936.111 245.919L937.878 244.15L866.684 172.856Z" fill="white"/>
<path d="M936.111 172.856L864.918 244.15L866.684 245.919L937.878 174.625L936.111 172.856Z" fill="white"/>
</g>
<defs>
<clipPath id="clip0">
<rect width="1112" height="612" fill="white"/>
</clipPath>
</defs>
</svg>